<?xml version="1.0" standalone="no"?><!DOCTYPE svg PUBLIC "-//W3C//DTD SVG 1.1//EN" "http://www.w3.org/Graphics/SVG/1.1/DTD/svg11.dtd"><svg t="1569376555217" class="icon" viewBox="0 0 1024 1024" version="1.1" xmlns="http://www.w3.org/2000/svg" p-id="2485" xmlns:xlink="http://www.w3.org/1999/xlink" width="200" height="200"><defs><style type="text/css"></style></defs><path d="M512 0C230.4 0 0 230.4 0 512s230.4 512 512 512 512-230.4 512-512S793.6 0 512 0z m0 983.466667C251.733333 983.466667 40.533333 772.266667 40.533333 512 40.533333 251.733333 251.733333 40.533333 512 40.533333c260.266667 0 471.466667 211.2 471.466667 471.466667 0 260.266667-211.2 471.466667-471.466667 471.466667z" fill="#bfbfbf" p-id="2486"></path><path d="M663.466667 360.533333c-8.533333-8.533333-21.333333-8.533333-29.866667 0L512 482.133333l-121.6-121.6c-8.533333-8.533333-21.333333-8.533333-29.866667 0-8.533333 8.533333-8.533333 21.333333 0 29.866667l121.6 121.6-121.6 121.6c-8.533333 8.533333-8.533333 21.333333 0 29.866667 8.533333 8.533333 21.333333 8.533333 29.866667 0l121.6-121.6 121.6 121.6c8.533333 8.533333 21.333333 8.533333 29.866667 0 8.533333-8.533333 8.533333-21.333333 0-29.866667L541.866667 512l121.6-121.6c8.533333-6.4 8.533333-21.333333 0-29.866667z" fill="#bfbfbf" p-id="2487"></path></svg>