<svg xmlns="http://www.w3.org/2000/svg" width="21.468" height="26.019" viewBox="0 0 21.468 26.019">
  <path id="上传" d="M152.368,63.023a.79.79,0,0,0-1.219,0L141.634,73.9c-.335.383-.193.7.316.7h4.282a.929.929,0,0,1,.926.926v7.134a.929.929,0,0,0,.926.926h7.349a.929.929,0,0,0,.926-.926V75.52a.929.929,0,0,1,.926-.926h4.282c.509,0,.652-.314.316-.7ZM141.024,86.615a.929.929,0,0,1,.926-.926h19.616a.929.929,0,0,1,.926.926v1.215a.929.929,0,0,1-.926.926H141.95a.929.929,0,0,1-.926-.926Zm.2-.868" transform="translate(-141.024 -62.736)" fill="#9b9b9b"/>
</svg>
