<svg xmlns="http://www.w3.org/2000/svg" width="24" height="24" viewBox="0 0 24 24">
  <path id="微信" d="M13.56,12a.643.643,0,0,0-.6.6.549.549,0,0,0,.6.48c.36,0,.72-.24.72-.48a.672.672,0,0,0-.72-.6Zm-1.8-2.64a.636.636,0,0,0,.72-.72.636.636,0,0,0-.72-.72.793.793,0,0,0-.84.72.793.793,0,0,0,.84.72ZM12,0A12,12,0,1,0,24,12,12.035,12.035,0,0,0,12,0ZM9.72,15a5.435,5.435,0,0,1-1.92-.36l-1.92.96.6-1.68A4.274,4.274,0,0,1,4.32,10.2c0-2.64,2.52-4.68,5.52-4.68,2.64,0,5.04,1.56,5.52,3.84h-.48A4.563,4.563,0,0,0,10.2,13.8a4.082,4.082,0,0,0,.12,1.2h-.6Zm8.16,1.92.36,1.44-1.44-.84a8.1,8.1,0,0,1-1.68.24c-2.64,0-4.68-1.8-4.68-4.08S12.48,9.6,15.12,9.6c2.52,0,4.68,1.8,4.68,4.08a4.06,4.06,0,0,1-1.92,3.24ZM7.92,8.04a.793.793,0,0,0-.84.72c0,.36.48.72.84.72a.72.72,0,1,0,0-1.44ZM16.68,12a.643.643,0,0,0-.6.6.549.549,0,0,0,.6.48c.36,0,.72-.24.72-.48a.761.761,0,0,0-.72-.6Z" fill="#a7a6bb"/>
</svg>
