<svg xmlns="http://www.w3.org/2000/svg" width="65" height="65" viewBox="0 0 65 65">
  <g id="组_17" data-name="组 17" transform="translate(-727 -223.28)">
    <g id="Group_21" data-name="Group 21" transform="translate(727 223.28)">
      <path id="Oval_2" data-name="Oval 2" d="M32.5,0A32.5,32.5,0,1,1,0,32.5,32.5,32.5,0,0,1,32.5,0Z" fill="#ffbf00"/>
    </g>
    <g id="Group_189" data-name="Group 189" transform="translate(748 244)">
      <rect id="Rectangle_48_Copy_20" data-name="Rectangle 48 Copy 20" width="24" height="24" fill="none"/>
      <g id="export" transform="translate(2.227 2.578)">
        <path id="Shape" d="M15.4,18.8H2.111A2.112,2.112,0,0,1,0,16.695V2.934A2.114,2.114,0,0,1,2.111.823H8.077a.839.839,0,0,1,0,1.678H2.11a.437.437,0,0,0-.436.436V16.7a.437.437,0,0,0,.436.436H15.4a.437.437,0,0,0,.437-.436V11.918a.84.84,0,0,1,1.68,0v4.775A2.114,2.114,0,0,1,15.4,18.8ZM7.465,10.3a.657.657,0,0,1-.12-.01.84.84,0,0,1-.71-.949A8.5,8.5,0,0,1,7.913,6.152,7.052,7.052,0,0,1,13.4,2.97V.839A.837.837,0,0,1,14.239,0a.826.826,0,0,1,.576.232l4.453,4.24a.848.848,0,0,1-.04,1.254l-4.456,3.71a.839.839,0,0,1-.535.193.805.805,0,0,1-.354-.08.841.841,0,0,1-.485-.759V6.2a.839.839,0,0,1,1.679,0V7l2.357-1.964L15.08,2.794v.987a.84.84,0,0,1-.839.839l-.052,0-.033,0A5.478,5.478,0,0,0,9.338,7.043,7.058,7.058,0,0,0,8.294,9.586.845.845,0,0,1,7.465,10.3Z" transform="translate(0.016 0.012)" fill="#fff"/>
      </g>
    </g>
  </g>
</svg>
