<svg xmlns="http://www.w3.org/2000/svg" width="13.412" height="13.412" viewBox="0 0 13.412 13.412">
  <g id="Group_113" data-name="Group 113" transform="translate(0 0)">
    <rect id="Rectangle_42_Copy_5" data-name="Rectangle 42 Copy 5" width="13.412" height="13.412" fill="none"/>
    <g id="earth" transform="translate(0 0)">
      <path id="Shape" d="M6.706,13.412A6.706,6.706,0,0,1,1.964,1.964a6.706,6.706,0,0,1,9.484,9.484A6.662,6.662,0,0,1,6.706,13.412ZM9.3,10.9a4.56,4.56,0,0,1-1.054,1.363,5.728,5.728,0,0,0,1.848-.892h-.018A5.885,5.885,0,0,0,9.3,10.9Zm-5.981.471a5.707,5.707,0,0,0,1.848.892A4.579,4.579,0,0,1,4.112,10.9a5.756,5.756,0,0,0-.776.471ZM6.3,10.3a5.765,5.765,0,0,0-1.349.258A2.55,2.55,0,0,0,6.3,11.867Zm.943.011v1.513a2.71,2.71,0,0,0,1.218-1.265A5.8,5.8,0,0,0,7.243,10.306Zm3-3.312a9.617,9.617,0,0,1-.554,3.04,6.808,6.808,0,0,1,1.132.711,5.752,5.752,0,0,0,1.647-3.751Zm-9.289,0A5.752,5.752,0,0,0,2.6,10.745a6.746,6.746,0,0,1,1.132-.711,9.621,9.621,0,0,1-.554-3.04Zm6.293,0V9.359a6.744,6.744,0,0,1,1.594.325A9.145,9.145,0,0,0,9.3,6.994Zm-3.126,0a9.157,9.157,0,0,0,.458,2.69A6.6,6.6,0,0,1,6.3,9.35V6.994Zm6.7-4.327a6.647,6.647,0,0,1-1.132.711,9.521,9.521,0,0,1,.539,2.673h2.209a5.77,5.77,0,0,0-1.616-3.384ZM8.837,3.727h0a6.591,6.591,0,0,1-1.594.325v2H9.278a8.877,8.877,0,0,0-.442-2.324Zm-4.263,0h0a9.063,9.063,0,0,0-.442,2.324H6.3V4.062a6.716,6.716,0,0,1-1.725-.334ZM2.6,2.667A5.768,5.768,0,0,0,.98,6.051H3.189a9.432,9.432,0,0,1,.538-2.673A6.789,6.789,0,0,1,2.6,2.667ZM6.3,1.544A2.541,2.541,0,0,0,4.951,2.858,5.708,5.708,0,0,0,6.3,3.116Zm.943.049V3.105a5.679,5.679,0,0,0,1.218-.247A2.7,2.7,0,0,0,7.243,1.593Zm1-.441h0A4.592,4.592,0,0,1,9.3,2.515a5.946,5.946,0,0,0,.775-.472h.019A5.718,5.718,0,0,0,8.247,1.151Zm-3.081,0a5.744,5.744,0,0,0-1.848.892h.019a5.632,5.632,0,0,0,.775.472A4.564,4.564,0,0,1,5.166,1.151Z" transform="translate(0 0)" fill="#13b4df"/>
    </g>
  </g>
</svg>
