<svg xmlns="http://www.w3.org/2000/svg" width="65" height="65" viewBox="0 0 65 65">
  <g id="组_18" data-name="组 18" transform="translate(-459 -223.28)">
    <g id="Group_21" data-name="Group 21" transform="translate(459 223.28)">
      <circle id="Oval_2" data-name="Oval 2" cx="32.5" cy="32.5" r="32.5" fill="#ffbf00"/>
    </g>
    <g id="Group_182" data-name="Group 182" transform="translate(480 244)">
      <g id="upload" transform="translate(1.5 1.5)">
        <path id="Shape" d="M19.544,21H1.455A1.457,1.457,0,0,1,0,19.543V14.318a.81.81,0,1,1,1.619,0V18.9a.483.483,0,0,0,.483.482H18.9a.483.483,0,0,0,.482-.482V14.32a.811.811,0,0,1,1.622,0v5.225A1.457,1.457,0,0,1,19.544,21Zm-9.021-3.879a.812.812,0,0,1-.811-.811V2.766L7.441,5.036a.807.807,0,0,1-1.144,0,.813.813,0,0,1,0-1.146L9.95.237A.806.806,0,0,1,10.524,0,.815.815,0,0,1,11.1.237l3.651,3.654a.809.809,0,1,1-1.144,1.146L11.335,2.766V16.308A.812.812,0,0,1,10.524,17.119Z" fill="#fff"/>
      </g>
      <rect id="Rectangle_49" data-name="Rectangle 49" width="24" height="24" fill="none"/>
    </g>
  </g>
</svg>
