<svg xmlns="http://www.w3.org/2000/svg" xmlns:xlink="http://www.w3.org/1999/xlink" width="14" height="13" viewBox="0 0 14 13">
  <defs>
    <clipPath id="clip-path"/>
  </defs>
  <g id="Group_3_Copy" data-name="Group 3 Copy" transform="translate(0 -1)">
    <g id="Group_3_Copy-2" data-name="Group 3 Copy" clip-path="url(#clip-path)">
      <g id="dashboard" transform="translate(0 1)">
        <path id="Shape" d="M7,0A7.083,7.083,0,0,0,0,7.165,7.208,7.208,0,0,0,2.8,12.9v0A.488.488,0,0,0,3.1,13a.5.5,0,0,0,.492-.5.506.506,0,0,0-.242-.434A6.1,6.1,0,0,1,2.021,10.62l.6-.357a.454.454,0,0,0,.16-.612.432.432,0,0,0-.6-.164l-.6.357A6.193,6.193,0,0,1,1,7.612H1.7a.448.448,0,0,0,0-.9H1a6.261,6.261,0,0,1,.585-2.239l.6.355a.432.432,0,0,0,.6-.164.454.454,0,0,0-.16-.612l-.6-.354A6.128,6.128,0,0,1,3.619,2.072l.346.614a.432.432,0,0,0,.6.164.454.454,0,0,0,.16-.612l-.347-.616a5.857,5.857,0,0,1,2.188-.6v.711a.438.438,0,1,0,.875,0V1.024a5.887,5.887,0,0,1,2.181.6l-.349.619a.454.454,0,0,0,.16.612.432.432,0,0,0,.6-.164l.349-.619a6.1,6.1,0,0,1,1.6,1.636l-.6.354a.454.454,0,0,0-.16.612.432.432,0,0,0,.6.164l.6-.355A6.225,6.225,0,0,1,13,6.717H12.3a.448.448,0,0,0,0,.9H13a6.241,6.241,0,0,1-.582,2.232l-.6-.357a.432.432,0,0,0-.6.164.454.454,0,0,0,.16.612l.6.357a6.111,6.111,0,0,1-1.37,1.471l0,0a.506.506,0,0,0-.194.4.5.5,0,0,0,.492.5.486.486,0,0,0,.351-.151A7.209,7.209,0,0,0,14,7.165,7.083,7.083,0,0,0,7,0Z" fill="#15b5df"/>
        <path id="Shape-2" data-name="Shape" d="M3.139.1,1.421,1.469h0a.956.956,0,0,0-.436-.1A1,1,0,0,0,0,2.373,1,1,0,0,0,.984,3.381a1,1,0,0,0,.984-1.008.966.966,0,0,0-.018-.19L3.678.8A.455.455,0,0,0,3.753.172.431.431,0,0,0,3.139.1Z" transform="translate(6.016 4.786)" fill="#15b5df"/>
      </g>
    </g>
  </g>
</svg>
