<svg xmlns="http://www.w3.org/2000/svg" width="13" height="13" viewBox="0 0 13 13">
  <g id="Group_28" data-name="Group 28" transform="translate(-5.5 -2.5)">
    <g id="appstore-o" transform="translate(5.5 2.5)">
      <path id="Shape" d="M11.955,13h-3.8a1.046,1.046,0,0,1-1.045-1.045v-3.8A1.046,1.046,0,0,1,8.154,7.109h3.8A1.046,1.046,0,0,1,13,8.154v3.8A1.046,1.046,0,0,1,11.955,13Zm-3.8-4.846v3.8h3.8v-3.8ZM4.846,13h-3.8A1.046,1.046,0,0,1,0,11.955v-3.8A1.046,1.046,0,0,1,1.045,7.109h3.8A1.046,1.046,0,0,1,5.891,8.154v3.8A1.046,1.046,0,0,1,4.846,13Zm-3.8-4.846v3.8h3.8v-3.8ZM11.955,5.891h-3.8A1.046,1.046,0,0,1,7.109,4.846v-3.8A1.046,1.046,0,0,1,8.154,0h3.8A1.046,1.046,0,0,1,13,1.045v3.8A1.046,1.046,0,0,1,11.955,5.891Zm-3.8-4.846v3.8h3.8v-3.8ZM4.846,5.891h-3.8A1.046,1.046,0,0,1,0,4.846v-3.8A1.046,1.046,0,0,1,1.045,0h3.8A1.046,1.046,0,0,1,5.891,1.045v3.8A1.046,1.046,0,0,1,4.846,5.891Zm-3.8-4.846v3.8h3.8v-3.8Z" transform="translate(0 0)" fill="#13b4df"/>
    </g>
  </g>
</svg>
