<svg xmlns="http://www.w3.org/2000/svg" width="65" height="65" viewBox="0 0 65 65">
  <g id="组_16" data-name="组 16" transform="translate(-593 -223.28)">
    <g id="Group_21" data-name="Group 21" transform="translate(593 223.28)">
      <circle id="Oval_2" data-name="Oval 2" cx="32.5" cy="32.5" r="32.5" fill="#ffbf00"/>
    </g>
    <g id="Group_190" data-name="Group 190" transform="translate(614 244)">
      <rect id="Rectangle_48_Copy_22" data-name="Rectangle 48 Copy 22" width="24" height="24" fill="none"/>
      <g id="export2" transform="translate(2.227 2.602)">
        <path id="Shape" d="M5.288,18.806a.829.829,0,0,1-.576-.232L.258,14.337A.849.849,0,0,1,.3,13.082L4.754,9.37a.843.843,0,0,1,.535-.192.817.817,0,0,1,.354.079.844.844,0,0,1,.485.76v2.592a.839.839,0,1,1-1.679,0v-.8L2.092,13.772l2.355,2.241v-.987a.84.84,0,0,1,.839-.839l.052,0,.033,0a5.494,5.494,0,0,0,4.821-2.428,6.96,6.96,0,0,0,1.042-2.542.845.845,0,0,1,.83-.713.635.635,0,0,1,.12.01.824.824,0,0,1,.549.326.84.84,0,0,1,.161.623,8.548,8.548,0,0,1-1.28,3.185,7.054,7.054,0,0,1-5.489,3.185v2.131a.836.836,0,0,1-.837.838Zm12.127-.822H11.447a.839.839,0,0,1,0-1.678h5.97a.437.437,0,0,0,.437-.436V2.11a.437.437,0,0,0-.437-.436H4.128a.437.437,0,0,0-.436.436V6.886a.84.84,0,0,1-1.68,0V2.111A2.114,2.114,0,0,1,4.123,0H17.415a2.113,2.113,0,0,1,2.111,2.11V15.872A2.114,2.114,0,0,1,17.415,17.984Z" transform="translate(0.018 0.012)" fill="#fff"/>
      </g>
    </g>
  </g>
</svg>
