<svg xmlns="http://www.w3.org/2000/svg" width="65" height="65" viewBox="0 0 65 65">
  <g id="组_15" data-name="组 15" transform="translate(-459 -223.28)">
    <g id="Group_21" data-name="Group 21" transform="translate(459 223.28)">
      <circle id="Oval_2" data-name="Oval 2" cx="32.5" cy="32.5" r="32.5" fill="#ffbf00"/>
    </g>
    <g id="Group_163" data-name="Group 163" transform="translate(480 244)">
      <rect id="Rectangle_45_Copy_28" data-name="Rectangle 45 Copy 28" width="24" height="24" fill="none"/>
      <g id="tool" transform="translate(1.5 1.5)">
        <path id="Shape" d="M5.135,20.956a5.124,5.124,0,0,1-2.785-.819l3.9-3.9L4.663,14.655.775,18.538a5.129,5.129,0,0,1,5.683-7.662l4.43-4.427A5.13,5.13,0,0,1,18.557.775L14.666,4.658l1.588,1.587,3.9-3.9a5.13,5.13,0,0,1-.684,6.408,5.137,5.137,0,0,1-4.957,1.327l-4.43,4.423a5.121,5.121,0,0,1-4.952,6.449Zm-.054-1.445h.054a3.682,3.682,0,0,0,3.273-5.373,3.816,3.816,0,0,0-.673-.916,3.663,3.663,0,0,0-.916-.67,3.718,3.718,0,0,0-1.694-.41,3.682,3.682,0,0,0-3.683,3.743l2.227-2.224a1.441,1.441,0,0,1,2.041,0L7.3,15.248a1.439,1.439,0,0,1,0,2.038L5.073,19.511ZM11.509,7.871,7.876,11.5a5,5,0,0,1,.882.706,5.116,5.116,0,0,1,.707.881L13.1,9.458a5.13,5.13,0,0,1-1.589-1.587Zm4.332-6.425a3.683,3.683,0,0,0-3.276,5.371,3.828,3.828,0,0,0,.673.916,3.677,3.677,0,0,0,2.609,1.08,3.687,3.687,0,0,0,3.686-3.741L17.308,7.3a1.442,1.442,0,0,1-2.042,0L13.677,5.711a1.437,1.437,0,0,1,0-2.038L15.9,1.447Z" transform="translate(0.013 0.022)" fill="#fff"/>
      </g>
    </g>
  </g>
</svg>
