<svg xmlns="http://www.w3.org/2000/svg" width="13.75" height="21.865" viewBox="0 0 13.75 21.865">
  <g id="冠军" transform="translate(-190.17 -7.314)">
    <path id="路径_1" data-name="路径 1" d="M273.054,12.581l-2.021,4.042a1.217,1.217,0,0,1-1.114.684h-4.074a1.245,1.245,0,0,1-1.114-.684l-2.021-4.042a1.357,1.357,0,0,1-.127-.557V8.571a1.26,1.26,0,0,1,1.257-1.257h8.116a1.26,1.26,0,0,1,1.257,1.257v3.453A2.235,2.235,0,0,1,273.054,12.581Z" transform="translate(-70.837 0)" fill="#e42d6c"/>
    <path id="路径_2" data-name="路径 2" d="M190.17,387.218a6.875,6.875,0,1,0,6.875-6.875,6.877,6.877,0,0,0-6.875,6.875Z" transform="translate(0 -364.913)" fill="#f9d00e"/>
    <path id="路径_3" data-name="路径 3" d="M281.477,461.531a5,5,0,1,0,5,5,5.005,5.005,0,0,0-5-5Z" transform="translate(-84.432 -444.335)" fill="#ecb408"/>
    <path id="路径_4" data-name="路径 4" d="M500.583,92.386a.285.285,0,0,1-.286-.286V88.057a.286.286,0,1,1,.573,0v4.058A.306.306,0,0,1,500.583,92.386Z" transform="translate(-303.38 -78.706)" fill="#fffeff"/>
    <path id="路径_5" data-name="路径 5" d="M382.509,487.863l-5.092,8.578a5,5,0,1,0,5.092-8.578Z" transform="translate(-183.173 -470.094)" fill="#fccc44"/>
    <path id="路径_6" data-name="路径 6" d="M268.6,458.933a5.283,5.283,0,1,1,5.283-5.283A5.291,5.291,0,0,1,268.6,458.933Zm0-9.994a4.71,4.71,0,1,0,4.71,4.71,4.72,4.72,0,0,0-4.71-4.71Z" transform="translate(-71.553 -431.456)" fill="#d19d0b"/>
    <path id="路径_7" data-name="路径 7" d="M430.718,568.32v5.347h-.875v-4.3a2.92,2.92,0,0,1-1.225.652v-.859a3.015,3.015,0,0,0,.764-.318,2.88,2.88,0,0,0,.668-.525Z" transform="translate(-233.259 -548.8)" fill="#d19d0b"/>
    <path id="路径_8" data-name="路径 8" d="M445.347,568.32v5.347h-.875v-4.3a2.92,2.92,0,0,1-1.225.652v-.859a3.014,3.014,0,0,0,.764-.318,2.876,2.876,0,0,0,.668-.525Z" transform="translate(-247.57 -548.8)" fill="#fffeff"/>
  </g>
</svg>
