<svg xmlns="http://www.w3.org/2000/svg" width="13.739" height="21.86" viewBox="0 0 13.739 21.86">
  <g id="亚军" transform="translate(-219.798 -49.131)">
    <path id="路径_9" data-name="路径 9" d="M296.381,54.392l-2.021,4.043a1.252,1.252,0,0,1-1.118.691h-4.077a1.253,1.253,0,0,1-1.118-.691l-2.021-4.043a1.23,1.23,0,0,1-.132-.559V50.381a1.249,1.249,0,0,1,1.25-1.25h8.119a1.249,1.249,0,0,1,1.25,1.25v3.452A1.262,1.262,0,0,1,296.381,54.392Zm0,0" transform="translate(-64.536)" fill="#e42d6c"/>
    <path id="路径_10" data-name="路径 10" d="M219.8,400.125a6.869,6.869,0,1,0,6.869-6.869A6.869,6.869,0,0,0,219.8,400.125Zm0,0" transform="translate(0 -336.003)" fill="#cdcdcd"/>
    <path id="路径_11" data-name="路径 11" d="M304.128,468.247a5,5,0,1,0,5,4.995A5,5,0,0,0,304.128,468.247Zm0,0" transform="translate(-77.461 -409.225)" fill="#c6c6c6"/>
    <path id="路径_12" data-name="路径 12" d="M505.867,127.913a.281.281,0,0,1-.281-.281v-4.06a.281.281,0,0,1,.562,0v4.06a.279.279,0,0,1-.281.281Zm0,0" transform="translate(-279.043 -72.411)" fill="#fffeff"/>
    <path id="路径_13" data-name="路径 13" d="M397.217,491.933l-5.1,8.573a5,5,0,1,0,5.1-8.573Zm0,0" transform="translate(-168.255 -432.352)" fill="#efefef"/>
    <path id="路径_14" data-name="路径 14" d="M292.515,466.8a5.278,5.278,0,1,1,5.278-5.278A5.284,5.284,0,0,1,292.515,466.8Zm0-9.992a4.715,4.715,0,1,0,4.716,4.714A4.723,4.723,0,0,0,292.515,456.812Zm0,0" transform="translate(-65.847 -397.509)" fill="#8f8f8f"/>
    <path id="路径_15" data-name="路径 15" d="M421.927,562.9a7.766,7.766,0,0,0-1.225.987,2.275,2.275,0,0,0-.537,1.516h3.724v-.867h-2.637a2.7,2.7,0,0,1,1-.95,6.629,6.629,0,0,0,1.112-.862,1.856,1.856,0,0,0,.525-1.262,1.52,1.52,0,0,0-.5-1.162,1.974,1.974,0,0,0-2.675.125,2.117,2.117,0,0,0-.525,1.45h.875a1.714,1.714,0,0,1,.275-.95.855.855,0,0,1,.737-.338,1.018,1.018,0,0,1,.7.213.814.814,0,0,1,.237.65,1.246,1.246,0,0,1-.35.85,4.666,4.666,0,0,1-.737.6Z" transform="translate(-195.638 -498.654)" fill="#6f6f6f"/>
    <path id="路径_16" data-name="路径 16" d="M433.563,564.193a7.76,7.76,0,0,0-1.225.987,2.045,2.045,0,0,0-.537,1.425h3.724v-.775h-2.637a2.7,2.7,0,0,1,1-.95,6.629,6.629,0,0,0,1.112-.862,1.857,1.857,0,0,0,.525-1.262,1.52,1.52,0,0,0-.5-1.162,1.974,1.974,0,0,0-2.675.125,2.117,2.117,0,0,0-.525,1.45h.875a1.714,1.714,0,0,1,.275-.95.855.855,0,0,1,.737-.338,1.018,1.018,0,0,1,.7.213.814.814,0,0,1,.237.65,1.246,1.246,0,0,1-.35.85A4.66,4.66,0,0,1,433.563,564.193Z" transform="translate(-207 -499.916)" fill="#fff"/>
  </g>
</svg>
