<svg xmlns="http://www.w3.org/2000/svg" width="23.977" height="23.977" viewBox="0 0 23.977 23.977">
  <g id="up-circle" transform="translate(23.988 24) rotate(180)" opacity="0.9">
    <path id="Shape" d="M11.988,23.977A11.989,11.989,0,0,1,3.511,3.511,11.989,11.989,0,0,1,20.466,20.466,11.911,11.911,0,0,1,11.988,23.977Zm0-16.505a.843.843,0,0,0-.616.266L6.2,13.26a.843.843,0,0,0,1.229,1.155l4.561-4.866,4.559,4.864a.844.844,0,0,0,1.192.038.846.846,0,0,0,.038-1.193L12.6,7.736A.837.837,0,0,0,11.988,7.472Z" transform="translate(0.012 0.023)" fill="#fff"/>
  </g>
</svg>
